<?xml version="1.0" encoding="UTF-8"?><svg id="Layer_1" xmlns="http://www.w3.org/2000/svg" viewBox="0 0 591.1 458.41"><defs><style>.cls-1{fill:#48a0d9;}.cls-1,.cls-2{fill-rule:evenodd;}.cls-2{fill:#333;}</style></defs><path class="cls-1" d="M361.98,39.98c-2.85,2.01-15.55,11.71-24.08,.84l-18.15-22.91c-1.84-2.34-4.85-3.43-7.86-2.68-3.01,.76-5.43,3.18-5.94,6.19-1.84,5.43-36.63,142.83-36.63,142.83-.25,2,.25,4.26,1.42,5.85l.17,.17c1.25,1.51,3.26,2.18,5.35,2.51,0,0,142.91,.42,148.85,0,3.01,.25,5.94-1.84,7.44-4.6,1.42-2.59,1.09-5.85-.75-8.2,0,0-14.3-18.06-18.06-22.91-7.61-9.62-.67-16.48,8.86-23.83,49.51-38.3,106.7-66.48,168.5-4.6C548.46-17.89,452.04-24.16,361.98,39.98Z"/><path class="cls-2" d="M328.98,400.47c4.01-2.92,22.33-16.89,34.62-1.34l25.92,32.86c2.59,3.35,7.02,4.85,11.29,3.85,4.35-1.17,7.86-4.6,8.53-8.95,2.76-7.86,53.43-205.21,53.43-205.21,.42-2.84-.33-6.02-1.92-8.28l-.25-.33c-1.84-2.18-4.77-2.72-7.78-3.14,0,0-205.38-.59-213.82,0-4.43-.34-8.62,3.14-10.87,6.98-2.01,3.85-1.5,8.53,1.09,11.79,0,0,20.49,25.84,25.92,32.87,10.79,13.72,.84,23.5-12.87,34.12-71.41,55.27-153.79,95.91-242.26,7.61,60.55,181.21,199.19,189.66,328.98,97.17Z"/></svg>